<?xml version="1.0" encoding="UTF-8" standalone="no"?>
<!-- Created with Inkscape (http://www.inkscape.org/) -->

<svg
   xmlns:dc="http://purl.org/dc/elements/1.1/"
   xmlns:cc="http://creativecommons.org/ns#"
   xmlns:rdf="http://www.w3.org/1999/02/22-rdf-syntax-ns#"
   xmlns:svg="http://www.w3.org/2000/svg"
   xmlns="http://www.w3.org/2000/svg"
   xmlns:sodipodi="http://sodipodi.sourceforge.net/DTD/sodipodi-0.dtd"
   xmlns:inkscape="http://www.inkscape.org/namespaces/inkscape"
   id="svg2"
   version="1.1"
   inkscape:version="0.48.3.1 r9886"
   width="990"
   height="765"
   xml:space="preserve"
   sodipodi:docname="strain_amp_daq.svg"
   inkscape:export-filename="/home/bsb/Projects/me402book/me402book/trunk/figs/strain_daq.png"
   inkscape:export-xdpi="150"
   inkscape:export-ydpi="150"><sodipodi:namedview
     pagecolor="#ffffff"
     bordercolor="#666666"
     borderopacity="1"
     objecttolerance="10"
     gridtolerance="10"
     guidetolerance="10"
     inkscape:pageopacity="0"
     inkscape:pageshadow="2"
     inkscape:window-width="1494"
     inkscape:window-height="830"
     id="namedview4"
     showgrid="false"
     inkscape:zoom="0.87256051"
     inkscape:cx="431.26243"
     inkscape:cy="380.34417"
     inkscape:window-x="0"
     inkscape:window-y="28"
     inkscape:window-maximized="0"
     inkscape:current-layer="g12" /><metadata
     id="metadata8"><rdf:RDF><cc:Work
         rdf:about=""><dc:format>image/svg+xml</dc:format><dc:type
           rdf:resource="http://purl.org/dc/dcmitype/StillImage" /><dc:title></dc:title></cc:Work></rdf:RDF></metadata><defs
     id="defs6"><marker
       inkscape:stockid="Arrow1Lend"
       orient="auto"
       refY="0.0"
       refX="0.0"
       id="Arrow1Lend"
       style="overflow:visible;"><path
         id="path3991"
         d="M 0.0,0.0 L 5.0,-5.0 L -12.5,0.0 L 5.0,5.0 L 0.0,0.0 z "
         style="fill-rule:evenodd;stroke:#000000;stroke-width:1.0pt;"
         transform="scale(0.8) rotate(180) translate(12.5,0)" /></marker><inkscape:perspective
       id="perspective10"
       inkscape:persp3d-origin="0.5 : 0.33333333 : 1"
       inkscape:vp_z="1 : 0.5 : 1"
       inkscape:vp_y="0 : 1000 : 0"
       inkscape:vp_x="0 : 0.5 : 1"
       sodipodi:type="inkscape:persp3d" /><clipPath
       id="clipPath32"
       clipPathUnits="userSpaceOnUse"><path
         id="path34"
         d="M 0,612 792,612 792,0 0,0 0,612 z" /></clipPath><clipPath
       id="clipPath52"
       clipPathUnits="userSpaceOnUse"><path
         id="path54"
         d="M 0,612 792,612 792,0 0,0 0,612 z" /></clipPath><clipPath
       id="clipPath66"
       clipPathUnits="userSpaceOnUse"><path
         id="path68"
         d="M 0,612 792,612 792,0 0,0 0,612 z" /></clipPath><clipPath
       id="clipPath100"
       clipPathUnits="userSpaceOnUse"><path
         id="path102"
         d="M 0,612 792,612 792,0 0,0 0,612 z" /></clipPath><inkscape:perspective
       sodipodi:type="inkscape:persp3d"
       inkscape:vp_x="0 : 0.5 : 1"
       inkscape:vp_y="0 : 1000 : 0"
       inkscape:vp_z="1 : 0.5 : 1"
       inkscape:persp3d-origin="0.5 : 0.33333333 : 1"
       id="perspective2985" /><inkscape:perspective
       sodipodi:type="inkscape:persp3d"
       inkscape:vp_x="0 : 0.5 : 1"
       inkscape:vp_y="0 : 1000 : 0"
       inkscape:vp_z="1 : 0.5 : 1"
       inkscape:persp3d-origin="0.5 : 0.33333333 : 1"
       id="perspective3010" /><inkscape:perspective
       id="perspective3386"
       inkscape:persp3d-origin="0.5 : 0.33333333 : 1"
       inkscape:vp_z="1 : 0.5 : 1"
       inkscape:vp_y="0 : 1000 : 0"
       inkscape:vp_x="0 : 0.5 : 1"
       sodipodi:type="inkscape:persp3d" /><marker
       inkscape:stockid="Arrow1Lend"
       orient="auto"
       refY="0"
       refX="0"
       id="Arrow1Lend-2"
       style="overflow:visible"><path
         inkscape:connector-curvature="0"
         id="path3991-4"
         d="M 0,0 5,-5 -12.5,0 5,5 0,0 z"
         style="fill-rule:evenodd;stroke:#000000;stroke-width:1pt"
         transform="matrix(-0.8,0,0,-0.8,-10,0)" /></marker><marker
       inkscape:stockid="Arrow1Lend"
       orient="auto"
       refY="0"
       refX="0"
       id="Arrow1Lend-9"
       style="overflow:visible"><path
         inkscape:connector-curvature="0"
         id="path3991-6"
         d="M 0,0 5,-5 -12.5,0 5,5 0,0 z"
         style="fill-rule:evenodd;stroke:#000000;stroke-width:1pt"
         transform="matrix(-0.8,0,0,-0.8,-10,0)" /></marker></defs><g
     transform="matrix(1.25,0,0,-1.25,0,765)"
     inkscape:label="daq"
     inkscape:groupmode="layer"
     id="g12"><path
   id="path14"
   style="font-style:normal;font-variant:normal;font-weight:normal;font-stretch:normal;fill:#ffffff;fill-opacity:1;fill-rule:nonzero;stroke:#373535;stroke-width:1;stroke-linecap:butt;stroke-linejoin:miter;stroke-miterlimit:10;stroke-opacity:1;stroke-dasharray:none;font-family:DejaVu Sans;-inkscape-font-specification:DejaVu Sans"
   d="m 167.084,317.316 -63.56,0 0,64.748 63.56,0 0,-64.748 z"
   inkscape:connector-curvature="0" /><text
   style="font-style:normal;font-variant:normal;font-weight:normal;font-stretch:normal;font-family:DejaVu Sans;-inkscape-font-specification:DejaVu Sans"
   y="-356.32565"
   x="135.53352"
   id="text16"
   transform="scale(1,-1)"><tspan
     id="tspan18"
     sodipodi:role="line"
     y="-356.32565"
     x="135.53352"
     style="font-size:18px;font-style:normal;font-variant:normal;font-weight:normal;font-stretch:normal;text-align:center;writing-mode:lr-tb;text-anchor:middle;fill:#373535;fill-opacity:1;fill-rule:nonzero;stroke:none;font-family:DejaVu Sans;-inkscape-font-specification:DejaVu Sans">Strain</tspan><tspan
     id="tspan2965"
     sodipodi:role="line"
     y="-333.82565"
     x="135.53352"
     style="font-size:18px;font-style:normal;font-variant:normal;font-weight:normal;font-stretch:normal;text-align:center;writing-mode:lr-tb;text-anchor:middle;fill:#373535;fill-opacity:1;fill-rule:nonzero;stroke:none;font-family:DejaVu Sans;-inkscape-font-specification:DejaVu Sans">Gage</tspan></text>





<g
   style="font-style:normal;font-variant:normal;font-weight:normal;font-stretch:normal;font-family:DejaVu Sans;-inkscape-font-specification:DejaVu Sans"
   transform="translate(103.2013,349.6905)"
   id="g20"><path
     id="path22"
     style="font-style:normal;font-variant:normal;font-weight:normal;font-stretch:normal;fill:#ffffff;fill-opacity:1;fill-rule:nonzero;stroke:none;font-family:DejaVu Sans;-inkscape-font-specification:DejaVu Sans"
     d="M 0,0 -70.628,0.06 0,0 z"
     inkscape:connector-curvature="0" /></g><path
   id="path40"
   style="font-style:normal;font-variant:normal;font-weight:normal;font-stretch:normal;fill:#ffffff;fill-opacity:1;fill-rule:nonzero;stroke:#373535;stroke-width:1.0819521;stroke-linecap:butt;stroke-linejoin:miter;stroke-miterlimit:10;stroke-opacity:1;stroke-dasharray:none;font-family:DejaVu Sans;-inkscape-font-specification:DejaVu Sans"
   d="m 352.88654,317.316 -127.97454,0 0,64.747 127.97454,0 0,-64.747 z"
   inkscape:connector-curvature="0" /><text
   style="font-style:normal;font-variant:normal;font-weight:normal;font-stretch:normal;text-align:center;text-anchor:middle;font-family:DejaVu Sans;-inkscape-font-specification:DejaVu Sans"
   id="text42"
   transform="scale(1,-1)"
   x="289.07944"
   y="-355.8548"><tspan
     id="tspan46"
     sodipodi:role="line"
     style="font-size:18px;font-style:normal;font-variant:normal;font-weight:normal;font-stretch:normal;text-align:center;writing-mode:lr-tb;text-anchor:middle;fill:#373535;fill-opacity:1;fill-rule:nonzero;stroke:none;font-family:DejaVu Sans;-inkscape-font-specification:DejaVu Sans"
     x="289.07944"
     y="-355.8548">Wheatstone</tspan><tspan
     sodipodi:role="line"
     style="font-size:18px;font-style:normal;font-variant:normal;font-weight:normal;font-stretch:normal;text-align:center;writing-mode:lr-tb;text-anchor:middle;fill:#373535;fill-opacity:1;fill-rule:nonzero;stroke:none;font-family:DejaVu Sans;-inkscape-font-specification:DejaVu Sans"
     x="289.07944"
     y="-333.3548"
     id="tspan3076">Bridge</tspan></text>





<g
   style="font-style:normal;font-variant:normal;font-weight:normal;font-stretch:normal;font-family:DejaVu Sans;-inkscape-font-specification:DejaVu Sans"
   id="g48"
   transform="translate(84.07271,-80.50208)"><g
     style="font-style:normal;font-variant:normal;font-weight:normal;font-stretch:normal;font-family:DejaVu Sans;-inkscape-font-specification:DejaVu Sans"
     clip-path="url(#clipPath52)"
     id="g50"><path
       id="path56"
       style="font-style:normal;font-variant:normal;font-weight:normal;font-stretch:normal;fill:#ffffff;fill-opacity:1;fill-rule:nonzero;stroke:#373535;stroke-width:1;stroke-linecap:butt;stroke-linejoin:miter;stroke-miterlimit:10;stroke-opacity:1;stroke-dasharray:none;font-family:DejaVu Sans;-inkscape-font-specification:DejaVu Sans"
       d="m 518.077,317.259 -62.097,0 0,64.747 62.097,0 0,-64.747 z"
       inkscape:connector-curvature="0" /></g></g><text
   style="font-style:normal;font-variant:normal;font-weight:normal;font-stretch:normal;font-family:DejaVu Sans;-inkscape-font-specification:DejaVu Sans"
   id="text58"
   transform="scale(1,-1)"
   x="556.51392"
   y="-263.84708"><tspan
     id="tspan60"
     sodipodi:role="line"
     y="-263.84708"
     x="556.51392 567.52997 573.70392"
     style="font-size:18px;font-style:normal;font-variant:normal;font-weight:normal;font-stretch:normal;writing-mode:lr-tb;fill:#373535;fill-opacity:1;fill-rule:nonzero;stroke:none;font-family:DejaVu Sans;-inkscape-font-specification:DejaVu Sans">A/D</tspan></text>





<g
   style="font-style:normal;font-variant:normal;font-weight:normal;font-stretch:normal;font-family:DejaVu Sans;-inkscape-font-specification:DejaVu Sans"
   id="g62"
   transform="translate(84.07271,-80.50208)"><g
     style="font-style:normal;font-variant:normal;font-weight:normal;font-stretch:normal;font-family:DejaVu Sans;-inkscape-font-specification:DejaVu Sans"
     clip-path="url(#clipPath66)"
     id="g64"><path
       id="path70"
       style="font-style:normal;font-variant:normal;font-weight:normal;font-stretch:normal;fill:#ffffff;fill-opacity:1;fill-rule:nonzero;stroke:#373535;stroke-width:1;stroke-linecap:butt;stroke-linejoin:miter;stroke-miterlimit:10;stroke-opacity:1;stroke-dasharray:none;font-family:DejaVu Sans;-inkscape-font-specification:DejaVu Sans"
       d="m 667.097,317.199 -77.413,0 0,64.747 77.413,0 0,-64.747 z"
       inkscape:connector-curvature="0" /></g></g><text
   style="font-style:normal;font-variant:normal;font-weight:normal;font-stretch:normal;font-family:DejaVu Sans;-inkscape-font-specification:DejaVu Sans"
   id="text72"
   transform="scale(1,-1)"
   x="695.54974"
   y="-273.29169"><tspan
     id="tspan76"
     sodipodi:role="line"
     y="-273.29169"
     x="695.54974"
     style="font-size:18px;font-style:normal;font-variant:normal;font-weight:normal;font-stretch:normal;writing-mode:lr-tb;fill:#373535;fill-opacity:1;fill-rule:nonzero;stroke:none;font-family:DejaVu Sans;-inkscape-font-specification:DejaVu Sans">Log</tspan><tspan
     sodipodi:role="line"
     y="-250.79169"
     x="695.54974"
     style="font-size:18px;font-style:normal;font-variant:normal;font-weight:normal;font-stretch:normal;writing-mode:lr-tb;fill:#373535;fill-opacity:1;fill-rule:nonzero;stroke:none;font-family:DejaVu Sans;-inkscape-font-specification:DejaVu Sans"
     id="tspan3409">File</tspan></text>









<g
   style="font-style:normal;font-variant:normal;font-weight:normal;font-stretch:normal;font-family:DejaVu Sans;-inkscape-font-specification:DejaVu Sans"
   transform="translate(167.0843,349.7813)"
   id="g104"><path
     id="path106"
     style="font-style:normal;font-variant:normal;font-weight:normal;font-stretch:normal;fill:#ffffff;fill-opacity:1;fill-rule:nonzero;stroke:none;font-family:DejaVu Sans;-inkscape-font-specification:DejaVu Sans"
     d="M 0,0 70.629,-0.061"
     inkscape:connector-curvature="0" /></g><g
   style="font-style:normal;font-variant:normal;font-weight:normal;font-stretch:normal;font-family:DejaVu Sans;-inkscape-font-specification:DejaVu Sans"
   transform="translate(347.0345,349.6631)"
   id="g116"><path
     id="path118"
     style="font-style:normal;font-variant:normal;font-weight:normal;font-stretch:normal;fill:#ffffff;fill-opacity:1;fill-rule:nonzero;stroke:none;font-family:DejaVu Sans;-inkscape-font-specification:DejaVu Sans"
     d="M 0,0 70.628,-0.061"
     inkscape:connector-curvature="0" /></g><g
   style="font-style:normal;font-variant:normal;font-weight:normal;font-stretch:normal;font-family:DejaVu Sans;-inkscape-font-specification:DejaVu Sans"
   transform="translate(543.80235,269.13072)"
   id="g128"><path
     id="path130"
     style="font-style:normal;font-variant:normal;font-weight:normal;font-stretch:normal;fill:#ffffff;fill-opacity:1;fill-rule:nonzero;stroke:none;font-family:DejaVu Sans;-inkscape-font-specification:DejaVu Sans"
     d="M 0,0 70.629,-0.061"
     inkscape:connector-curvature="0" /></g><text
   transform="scale(1,-1)"
   id="text2969"
   y="-361.23572"
   x="40.646317"
   style="font-size:32px;font-style:normal;font-weight:normal;fill:#000000;fill-opacity:1;stroke:none;font-family:Bitstream Vera Sans"
   xml:space="preserve"><tspan
     style="font-size:14.39999962px"
     id="tspan2973"
     y="-361.23572"
     x="40.646317"
     sodipodi:role="line">Strain</tspan></text>





<text
   transform="scale(1,-1)"
   id="text2969-1"
   y="-261.43262"
   x="81.483551"
   style="font-size:32px;font-style:normal;font-weight:normal;fill:#000000;fill-opacity:1;stroke:none;font-family:Bitstream Vera Sans"
   xml:space="preserve"><tspan
     style="font-size:14.39999962px"
     id="tspan2973-6"
     y="-261.43262"
     x="81.483551"
     sodipodi:role="line" /></text>





<text
   sodipodi:linespacing="125%"
   transform="scale(1,-1)"
   id="text2969-3"
   y="-294.69858"
   x="616.0174"
   style="font-size:14.39999962px;font-style:normal;font-variant:normal;font-weight:normal;font-stretch:normal;text-align:start;line-height:125%;writing-mode:lr-tb;text-anchor:start;fill:#000000;fill-opacity:1;stroke:none;font-family:Symbol;-inkscape-font-specification:Symbol"
   xml:space="preserve"><tspan
     style="font-size:14.39999962px;font-style:normal;font-variant:normal;font-weight:normal;font-stretch:normal;text-align:start;line-height:125%;writing-mode:lr-tb;text-anchor:start;font-family:Symbol;-inkscape-font-specification:Symbol"
     id="tspan2973-0"
     y="-294.69858"
     x="616.0174"
     sodipodi:role="line">Digital </tspan><tspan
     style="font-size:14.39999962px;font-style:normal;font-variant:normal;font-weight:normal;font-stretch:normal;text-align:start;line-height:125%;writing-mode:lr-tb;text-anchor:start;font-family:Symbol;-inkscape-font-specification:Symbol"
     y="-276.69858"
     x="616.0174"
     sodipodi:role="line"
     id="tspan3405">Signal</tspan></text>






<g
   id="g3287"
   transform="matrix(0.45250612,0,0,-0.45250612,41.253995,492.24999)"><g
     word-spacing="normal"
     letter-spacing="normal"
     font-size-adjust="none"
     font-stretch="normal"
     font-weight="normal"
     font-variant="normal"
     font-style="normal"
     stroke-miterlimit="10.433"
     xml:space="preserve"
     transform="matrix(1.0928571,0,0,-1.0928571,-191.25,742.5)"
     id="g3289"
     style="font-style:normal;font-variant:normal;font-weight:normal;font-stretch:normal;letter-spacing:normal;word-spacing:normal;text-anchor:start;fill:none;stroke:#000000;stroke-linecap:butt;stroke-linejoin:miter;stroke-miterlimit:10.43299961;stroke-opacity:1;stroke-dasharray:none;stroke-dashoffset:0"><path
       id="path3291"
       d="m 469.15,427.77 -0.58,-0.15 -0.57,-0.19 -0.56,-0.21 -0.55,-0.23 -0.54,-0.27 -0.53,-0.28 -0.52,-0.31 -0.5,-0.33 -0.49,-0.35 -0.48,-0.38 -0.46,-0.39 -0.45,-0.41 -0.44,-0.43 -0.41,-0.44 -0.4,-0.46 -0.38,-0.47 -0.36,-0.49 -0.35,-0.5 -0.32,-0.51 -0.31,-0.52 -0.28,-0.53 -0.27,-0.53 -0.24,-0.55 -0.21,-0.55 -0.2,-0.56 -0.17,-0.56 -0.15,-0.56 -0.12,-0.57 -0.09,-0.57 -0.07,-0.57 -0.04,-0.56 -0.02,-0.57 c 0,-4.78 3.19,-8.37 7.87,-8.37 v 1.1 c -2.74,0 -4.78,2.09 -4.78,5.88 0,3.14 1.84,12.5 8.57,14.29 h 0 c 1.24,-2.29 2.74,-4.98 2.74,-8.56 0,-3.29 -1.9,-11.61 -6.53,-11.61 v -1.1 c 5.83,0 9.97,7.82 9.97,14.7 0,4.53 -2,7.02 -3.69,9.26 -1.79,2.25 -4.73,5.98 -4.73,8.17 0,1.1 0.99,2.29 2.74,2.29 1.49,0 2.49,-0.64 3.54,-1.34 0.99,-0.6 1.99,-1.25 2.73,-1.25 1.25,0 2,1.2 2,2 0,1.09 -0.8,1.24 -2.59,1.64 -2.59,0.55 -3.29,0.55 -4.09,0.55 -3.88,0 -5.68,-2.15 -5.68,-5.13 0,-2.69 1.45,-5.48 2.99,-8.52 z"
       style="fill:#000000;stroke-width:0"
       inkscape:connector-curvature="0" /><path
       id="path3293"
       d="m 505.85,422.94 0.48,0.11 0.47,0.12 0.49,0.14 0.48,0.15 0.48,0.16 0.48,0.18 0.48,0.19 0.48,0.2 0.47,0.22 0.46,0.23 0.46,0.24 0.45,0.25 0.44,0.27 0.43,0.28 0.42,0.29 0.4,0.3 0.39,0.31 0.37,0.32 0.35,0.34 0.34,0.35 0.32,0.35 0.29,0.37 0.28,0.38 0.25,0.39 0.22,0.4 0.2,0.41 0.17,0.42 0.15,0.43 0.11,0.44 0.08,0.45 0.05,0.45 0.02,0.47 c 0,4.29 -4.48,7.47 -11.01,7.47 h -14.19 c -1,0 -1.45,0 -1.45,-0.99 0,-0.55 0.45,-0.55 1.4,-0.55 0.1,0 1.04,0 1.89,-0.1 0.9,-0.1 1.34,-0.15 1.34,-0.8 0,-0.2 -0.04,-0.35 -0.2,-0.94 l -6.67,-26.75 c -0.5,-1.95 -0.6,-2.35 -4.53,-2.35 -0.9,0 -1.35,0 -1.35,-0.99 0,-0.55 0.6,-0.55 0.7,-0.55 h 12.6 c 0.4,0 1,0 1,1 0,0.54 -0.45,0.54 -1.39,0.54 -1.85,0 -3.24,0 -3.24,0.9 0,0.3 0.09,0.55 0.15,0.85 l 3.28,13.2 h 5.93 l -0.05,1.1 h -5.58 l 3.24,13 c 0.3,1.19 0.45,1.69 1.39,1.84 0.45,0.05 2.05,0.05 3.04,0.05 3.54,0 9.07,0 9.07,-4.93 0,-1.7 -0.8,-5.14 -2.74,-7.08 -1.3,-1.29 -3.94,-2.88 -8.42,-2.88 l 0.05,-1.1 c 4.54,0 5.43,-2.79 5.43,-4.53 0,-0.75 -0.4,-2.3 -0.7,-3.44 -0.35,-1.4 -0.79,-3.24 -0.79,-4.23 0,-5.39 5.97,-5.39 6.62,-5.39 4.24,0 5.98,5.03 5.98,5.73 0,0.6 -0.55,0.6 -0.6,0.6 -0.45,0 -0.54,-0.35 -0.65,-0.7 -1.24,-3.68 -3.38,-4.53 -4.53,-4.53 -1.64,0 -1.99,1.1 -1.99,3.04 0,1.54 0.3,4.08 0.5,5.68 0.1,0.69 0.2,1.64 0.2,2.34 0,3.83 -3.34,5.38 -4.69,5.88 z"
       style="fill:#000000;stroke-width:0"
       inkscape:connector-curvature="0" /></g></g>
<text
   id="text2969-8-5"
   y="-364.42935"
   x="362.85825"
   style="font-size:32px;font-style:normal;font-weight:normal;fill:#000000;fill-opacity:1;stroke:none;font-family:Bitstream Vera Sans"
   xml:space="preserve"
   transform="scale(1,-1)"><tspan
     style="font-size:14.39999962px"
     y="-364.42935"
     x="362.85825"
     sodipodi:role="line"
     id="tspan3403-2">mV</tspan></text>
<path
   id="path40-0"
   style="font-style:normal;font-variant:normal;font-weight:normal;font-stretch:normal;fill:#ffffff;fill-opacity:1;fill-rule:nonzero;stroke:#373535;stroke-width:1.19789398;stroke-linecap:butt;stroke-linejoin:miter;stroke-miterlimit:10;stroke-opacity:1;stroke-dasharray:none;font-family:DejaVu Sans;-inkscape-font-specification:DejaVu Sans"
   d="m 550.26207,315.10956 -156.87158,0 0,64.747 156.87158,0 0,-64.747 z"
   inkscape:connector-curvature="0" /><text
   style="font-size:12px;font-style:normal;font-variant:normal;font-weight:normal;font-stretch:normal;text-align:center;text-anchor:middle;font-family:DejaVu Sans;-inkscape-font-specification:DejaVu Sans"
   id="text42-4"
   x="471.71643"
   y="-355.48203"
   transform="scale(1,-1)"><tspan
     id="tspan46-0"
     sodipodi:role="line"
     style="font-size:18px;font-style:normal;font-variant:normal;font-weight:normal;font-stretch:normal;text-align:center;writing-mode:lr-tb;text-anchor:middle;fill:#373535;fill-opacity:1;fill-rule:nonzero;stroke:none;font-family:DejaVu Sans;-inkscape-font-specification:DejaVu Sans"
     x="471.71643"
     y="-355.48203">Instrumentation</tspan><tspan
     sodipodi:role="line"
     style="font-size:18px;font-style:normal;font-variant:normal;font-weight:normal;font-stretch:normal;text-align:center;writing-mode:lr-tb;text-anchor:middle;fill:#373535;fill-opacity:1;fill-rule:nonzero;stroke:none;font-family:DejaVu Sans;-inkscape-font-specification:DejaVu Sans"
     x="471.71643"
     y="-332.98203"
     id="tspan3076-3">Amplifier</tspan></text>
<path
   id="path14-2"
   style="font-style:normal;font-variant:normal;font-weight:normal;font-stretch:normal;fill:#ffffff;fill-opacity:1;fill-rule:nonzero;stroke:#373535;stroke-width:1.55115771;stroke-linecap:butt;stroke-linejoin:miter;stroke-miterlimit:10;stroke-opacity:1;stroke-dasharray:none;font-family:DejaVu Sans;-inkscape-font-specification:DejaVu Sans"
   d="m 320.27269,184.91752 -152.9311,0 0,64.748 152.9311,0 0,-64.748 z"
   inkscape:connector-curvature="0" /><text
   style="font-size:12px;font-style:normal;font-variant:normal;font-weight:normal;font-stretch:normal;font-family:DejaVu Sans;-inkscape-font-specification:DejaVu Sans"
   y="-214.75877"
   x="243.74562"
   id="text16-7"
   transform="scale(1,-1)"><tspan
     id="tspan2965-1"
     sodipodi:role="line"
     y="-214.75877"
     x="243.74562"
     style="font-size:18px;font-style:normal;font-variant:normal;font-weight:normal;font-stretch:normal;text-align:center;writing-mode:lr-tb;text-anchor:middle;fill:#373535;fill-opacity:1;fill-rule:nonzero;stroke:none;font-family:DejaVu Sans;-inkscape-font-specification:DejaVu Sans">Accelerometer</tspan></text>
<text
   id="text2969-7"
   y="-228.83722"
   x="38.742828"
   style="font-size:32px;font-style:normal;font-weight:normal;fill:#000000;fill-opacity:1;stroke:none;font-family:Bitstream Vera Sans"
   xml:space="preserve"
   transform="scale(1,-1)"><tspan
     style="font-size:14.39999962px"
     id="tspan2973-62"
     y="-228.83722"
     x="38.742828"
     sodipodi:role="line">Acceleration</tspan></text>
<path
   style="fill:none;stroke:#000000;stroke-width:1px;stroke-linecap:butt;stroke-linejoin:miter;stroke-opacity:1;marker-end:url(#Arrow1Lend)"
   d="m 53.86446,328.35406 72.2013,0"
   id="path3214"
   inkscape:connector-curvature="0"
   transform="matrix(0.8,0,0,-0.8,0,612)" /><path
   style="fill:none;stroke:#000000;stroke-width:0.80000001px;stroke-linecap:butt;stroke-linejoin:miter;stroke-opacity:1;marker-end:url(#Arrow1Lend)"
   d="m 166.4068,349.31675 57.76104,0"
   id="path3214-6"
   inkscape:connector-curvature="0" /><path
   style="fill:none;stroke:#000000;stroke-width:0.80000001px;stroke-linecap:butt;stroke-linejoin:miter;stroke-opacity:1;marker-end:url(#Arrow1Lend)"
   d="m 351.60886,350.23359 40.34104,0"
   id="path3214-9"
   inkscape:connector-curvature="0"
   sodipodi:nodetypes="cc" /><path
   style="fill:none;stroke:#000000;stroke-width:1px;stroke-linecap:butt;stroke-linejoin:miter;stroke-opacity:1;marker-end:url(#Arrow1Lend-9)"
   d="m 687.6314,330.64617 24.0671,0 0,57.30261"
   id="path4463"
   inkscape:connector-curvature="0"
   transform="matrix(0.8,0,0,-0.8,0,612)" /><path
   style="fill:none;stroke:#000000;stroke-width:1px;stroke-linecap:butt;stroke-linejoin:miter;stroke-opacity:1;marker-end:url(#Arrow1Lend-9)"
   d="m 51.572355,495.6777 157.009165,0"
   id="path4651"
   inkscape:connector-curvature="0"
   transform="matrix(0.8,0,0,-0.8,0,612)" /><path
   style="fill:none;stroke:#000000;stroke-width:1px;stroke-linecap:butt;stroke-linejoin:miter;stroke-opacity:1;marker-end:url(#Arrow1Lend-9)"
   d="m 399.97226,495.6777 312.87229,0 0,-27.50525"
   id="path4653"
   inkscape:connector-curvature="0"
   transform="matrix(0.8,0,0,-0.8,0,612)" /><path
   style="fill:none;stroke:#000000;stroke-width:1px;stroke-linecap:butt;stroke-linejoin:miter;stroke-opacity:1;marker-end:url(#Arrow1Lend-9)"
   d="m 751.81033,429.20667 90.53813,0"
   id="path4655"
   inkscape:connector-curvature="0"
   transform="matrix(0.8,0,0,-0.8,0,612)" /><text
   id="text2969-8-5-1-7"
   y="-244.13216"
   x="442.46906"
   style="font-size:32px;font-style:normal;font-weight:normal;text-align:center;text-anchor:middle;fill:#000000;fill-opacity:1;stroke:none;font-family:Bitstream Vera Sans"
   xml:space="preserve"
   transform="scale(1,-1)"><tspan
     style="font-size:14.39999962px;text-align:center;text-anchor:middle"
     y="-244.13216"
     x="442.46906"
     sodipodi:role="line"
     id="tspan3403-2-9-9">Analog</tspan><tspan
     style="font-size:14.39999962px;text-align:center;text-anchor:middle"
     y="-226.13216"
     x="442.46906"
     sodipodi:role="line"
     id="tspan4894">Voltage</tspan></text>
<text
   id="text2969-8-5-1-7-2"
   y="-371.7641"
   x="582.52155"
   style="font-size:32px;font-style:normal;font-weight:normal;text-align:center;text-anchor:middle;fill:#000000;fill-opacity:1;stroke:none;font-family:Bitstream Vera Sans"
   xml:space="preserve"
   transform="scale(1,-1)"><tspan
     style="font-size:14.39999962px;text-align:center;text-anchor:middle"
     y="-371.7641"
     x="582.52155"
     sodipodi:role="line"
     id="tspan3403-2-9-9-7">Analog</tspan><tspan
     style="font-size:14.39999962px;text-align:center;text-anchor:middle"
     y="-353.7641"
     x="582.52155"
     sodipodi:role="line"
     id="tspan4894-6">Voltage</tspan></text>
</g></svg>