<?xml version="1.0" encoding="UTF-8" standalone="no"?>
<!-- Created with Inkscape (http://www.inkscape.org/) -->

<svg
   xmlns:dc="http://purl.org/dc/elements/1.1/"
   xmlns:cc="http://creativecommons.org/ns#"
   xmlns:rdf="http://www.w3.org/1999/02/22-rdf-syntax-ns#"
   xmlns:svg="http://www.w3.org/2000/svg"
   xmlns="http://www.w3.org/2000/svg"
   xmlns:sodipodi="http://sodipodi.sourceforge.net/DTD/sodipodi-0.dtd"
   xmlns:inkscape="http://www.inkscape.org/namespaces/inkscape"
   id="svg2"
   version="1.1"
   inkscape:version="0.48.3.1 r9886"
   width="990"
   height="765"
   xml:space="preserve"
   sodipodi:docname="uni_model_line_geo.svg"
   inkscape:export-filename="/home/bsb/bbing/Classes/me402/me402book/trunk/figs/uni_model_line_geo.png"
   inkscape:export-xdpi="150"
   inkscape:export-ydpi="150"><metadata
     id="metadata8"><rdf:RDF><cc:Work
         rdf:about=""><dc:format>image/svg+xml</dc:format><dc:type
           rdf:resource="http://purl.org/dc/dcmitype/StillImage" /><dc:title></dc:title></cc:Work></rdf:RDF></metadata><defs
     id="defs6"><marker
       inkscape:stockid="Arrow1Sstart"
       orient="auto"
       refY="0.0"
       refX="0.0"
       id="Arrow1Sstart"
       style="overflow:visible"><path
         id="path5639"
         d="M 0.0,0.0 L 5.0,-5.0 L -12.5,0.0 L 5.0,5.0 L 0.0,0.0 z "
         style="fill-rule:evenodd;stroke:#000000;stroke-width:1.0pt"
         transform="scale(0.2) translate(6,0)" /></marker><marker
       inkscape:stockid="TriangleInL"
       orient="auto"
       refY="0.0"
       refX="0.0"
       id="TriangleInL"
       style="overflow:visible"><path
         id="path5760"
         d="M 5.77,0.0 L -2.88,5.0 L -2.88,-5.0 L 5.77,0.0 z "
         style="fill-rule:evenodd;stroke:#000000;stroke-width:1.0pt"
         transform="scale(-0.8)" /></marker><marker
       inkscape:stockid="Arrow1Mstart"
       orient="auto"
       refY="0.0"
       refX="0.0"
       id="Arrow1Mstart"
       style="overflow:visible"><path
         id="path4061"
         d="M 0.0,0.0 L 5.0,-5.0 L -12.5,0.0 L 5.0,5.0 L 0.0,0.0 z "
         style="fill-rule:evenodd;stroke:#000000;stroke-width:1.0pt"
         transform="scale(0.4) translate(10,0)" /></marker><marker
       inkscape:stockid="Arrow1Mend"
       orient="auto"
       refY="0.0"
       refX="0.0"
       id="Arrow1Mend"
       style="overflow:visible;"><path
         id="path4064"
         d="M 0.0,0.0 L 5.0,-5.0 L -12.5,0.0 L 5.0,5.0 L 0.0,0.0 z "
         style="fill-rule:evenodd;stroke:#000000;stroke-width:1.0pt;"
         transform="scale(0.4) rotate(180) translate(10,0)" /></marker><marker
       inkscape:stockid="Arrow2Lend"
       orient="auto"
       refY="0.0"
       refX="0.0"
       id="Arrow2Lend"
       style="overflow:visible;"><path
         id="path4076"
         style="fill-rule:evenodd;stroke-width:0.62500000;stroke-linejoin:round;"
         d="M 8.7185878,4.0337352 L -2.2072895,0.016013256 L 8.7185884,-4.0017078 C 6.9730900,-1.6296469 6.9831476,1.6157441 8.7185878,4.0337352 z "
         transform="scale(1.1) rotate(180) translate(1,0)" /></marker><marker
       inkscape:stockid="TriangleOutL"
       orient="auto"
       refY="0.0"
       refX="0.0"
       id="TriangleOutL"
       style="overflow:visible"><path
         id="path4197"
         d="M 5.77,0.0 L -2.88,5.0 L -2.88,-5.0 L 5.77,0.0 z "
         style="fill-rule:evenodd;stroke:#000000;stroke-width:1.0pt"
         transform="scale(0.8)" /></marker><marker
       inkscape:stockid="Arrow1Lend"
       orient="auto"
       refY="0.0"
       refX="0.0"
       id="Arrow1Lend"
       style="overflow:visible;"><path
         id="path4058"
         d="M 0.0,0.0 L 5.0,-5.0 L -12.5,0.0 L 5.0,5.0 L 0.0,0.0 z "
         style="fill-rule:evenodd;stroke:#000000;stroke-width:1.0pt;"
         transform="scale(0.8) rotate(180) translate(12.5,0)" /></marker><marker
       inkscape:stockid="Arrow2Mend"
       orient="auto"
       refY="0.0"
       refX="0.0"
       id="Arrow2Mend"
       style="overflow:visible;"><path
         id="path4481"
         style="fill-rule:evenodd;stroke-width:0.62500000;stroke-linejoin:round;"
         d="M 8.7185878,4.0337352 L -2.2072895,0.016013256 L 8.7185884,-4.0017078 C 6.9730900,-1.6296469 6.9831476,1.6157441 8.7185878,4.0337352 z "
         transform="scale(0.6) rotate(180) translate(0,0)" /></marker><marker
       inkscape:stockid="Arrow2Mstart"
       orient="auto"
       refY="0.0"
       refX="0.0"
       id="Arrow2Mstart"
       style="overflow:visible"><path
         id="path4478"
         style="fill-rule:evenodd;stroke-width:0.62500000;stroke-linejoin:round"
         d="M 8.7185878,4.0337352 L -2.2072895,0.016013256 L 8.7185884,-4.0017078 C 6.9730900,-1.6296469 6.9831476,1.6157441 8.7185878,4.0337352 z "
         transform="scale(0.6) translate(0,0)" /></marker><clipPath
       clipPathUnits="userSpaceOnUse"
       id="clipPath16"><path
         d="M 0,612 792,612 792,0 0,0 0,612 z"
         id="path18" /></clipPath><clipPath
       clipPathUnits="userSpaceOnUse"
       id="clipPath78"><path
         d="M 0,612 792,612 792,0 0,0 0,612 z"
         id="path80" /></clipPath><marker
       inkscape:stockid="Arrow1Lend"
       orient="auto"
       refY="0"
       refX="0"
       id="Arrow1Lend-0"
       style="overflow:visible"><path
         inkscape:connector-curvature="0"
         id="path4058-9"
         d="M 0,0 5,-5 -12.5,0 5,5 0,0 z"
         style="fill-rule:evenodd;stroke:#000000;stroke-width:1pt"
         transform="matrix(-0.8,0,0,-0.8,-10,0)" /></marker><marker
       inkscape:stockid="Arrow1Sstart"
       orient="auto"
       refY="0"
       refX="0"
       id="Arrow1Sstart-9"
       style="overflow:visible"><path
         inkscape:connector-curvature="0"
         id="path5639-6"
         d="M 0,0 5,-5 -12.5,0 5,5 0,0 z"
         style="fill-rule:evenodd;stroke:#000000;stroke-width:1pt"
         transform="matrix(0.2,0,0,0.2,1.2,0)" /></marker><marker
       inkscape:stockid="Arrow1Mstart"
       orient="auto"
       refY="0"
       refX="0"
       id="Arrow1Mstart-1"
       style="overflow:visible"><path
         inkscape:connector-curvature="0"
         id="path4061-5"
         d="M 0,0 5,-5 -12.5,0 5,5 0,0 z"
         style="fill-rule:evenodd;stroke:#000000;stroke-width:1pt"
         transform="matrix(0.4,0,0,0.4,4,0)" /></marker><marker
       inkscape:stockid="Arrow2Mend"
       orient="auto"
       refY="0"
       refX="0"
       id="Arrow2Mend-6"
       style="overflow:visible"><path
         inkscape:connector-curvature="0"
         id="path4481-5"
         style="fill-rule:evenodd;stroke-width:0.625;stroke-linejoin:round"
         d="M 8.7185878,4.0337352 -2.2072895,0.01601326 8.7185884,-4.0017078 c -1.7454984,2.3720609 -1.7354408,5.6174519 -6e-7,8.035443 z"
         transform="scale(-0.6,-0.6)" /></marker><marker
       inkscape:stockid="Arrow1Mstart"
       orient="auto"
       refY="0"
       refX="0"
       id="Arrow1Mstart-2"
       style="overflow:visible"><path
         inkscape:connector-curvature="0"
         id="path4061-2"
         d="M 0,0 5,-5 -12.5,0 5,5 0,0 z"
         style="fill-rule:evenodd;stroke:#000000;stroke-width:1pt"
         transform="matrix(0.4,0,0,0.4,4,0)" /></marker><marker
       inkscape:stockid="Arrow2Mend"
       orient="auto"
       refY="0"
       refX="0"
       id="Arrow2Mend-5"
       style="overflow:visible"><path
         inkscape:connector-curvature="0"
         id="path4481-3"
         style="fill-rule:evenodd;stroke-width:0.625;stroke-linejoin:round"
         d="M 8.7185878,4.0337352 -2.2072895,0.01601326 8.7185884,-4.0017078 c -1.7454984,2.3720609 -1.7354408,5.6174519 -6e-7,8.035443 z"
         transform="scale(-0.6,-0.6)" /></marker><marker
       inkscape:stockid="Arrow1Mstart"
       orient="auto"
       refY="0"
       refX="0"
       id="marker3056"
       style="overflow:visible"><path
         inkscape:connector-curvature="0"
         id="path3058"
         d="M 0,0 5,-5 -12.5,0 5,5 0,0 z"
         style="fill-rule:evenodd;stroke:#000000;stroke-width:1pt"
         transform="matrix(0.4,0,0,0.4,4,0)" /></marker><marker
       inkscape:stockid="Arrow2Mend"
       orient="auto"
       refY="0"
       refX="0"
       id="marker3060"
       style="overflow:visible"><path
         inkscape:connector-curvature="0"
         id="path3062"
         style="fill-rule:evenodd;stroke-width:0.625;stroke-linejoin:round"
         d="M 8.7185878,4.0337352 -2.2072895,0.01601326 8.7185884,-4.0017078 c -1.7454984,2.3720609 -1.7354408,5.6174519 -6e-7,8.035443 z"
         transform="scale(-0.6,-0.6)" /></marker><marker
       inkscape:stockid="Arrow1Sstart"
       orient="auto"
       refY="0"
       refX="0"
       id="Arrow1Sstart-8"
       style="overflow:visible"><path
         inkscape:connector-curvature="0"
         id="path5639-4"
         d="M 0,0 5,-5 -12.5,0 5,5 0,0 z"
         style="fill-rule:evenodd;stroke:#000000;stroke-width:1pt"
         transform="matrix(0.2,0,0,0.2,1.2,0)" /></marker><marker
       inkscape:stockid="Arrow1Sstart"
       orient="auto"
       refY="0"
       refX="0"
       id="marker3066"
       style="overflow:visible"><path
         inkscape:connector-curvature="0"
         id="path3068"
         d="M 0,0 5,-5 -12.5,0 5,5 0,0 z"
         style="fill-rule:evenodd;stroke:#000000;stroke-width:1pt"
         transform="matrix(0.2,0,0,0.2,1.2,0)" /></marker><marker
       inkscape:stockid="Arrow2Mend"
       orient="auto"
       refY="0"
       refX="0"
       id="marker3070"
       style="overflow:visible"><path
         inkscape:connector-curvature="0"
         id="path3072"
         style="fill-rule:evenodd;stroke-width:0.625;stroke-linejoin:round"
         d="M 8.7185878,4.0337352 -2.2072895,0.01601326 8.7185884,-4.0017078 c -1.7454984,2.3720609 -1.7354408,5.6174519 -6e-7,8.035443 z"
         transform="scale(-0.6,-0.6)" /></marker><marker
       inkscape:stockid="Arrow1Mstart"
       orient="auto"
       refY="0"
       refX="0"
       id="marker3074"
       style="overflow:visible"><path
         inkscape:connector-curvature="0"
         id="path3076"
         d="M 0,0 5,-5 -12.5,0 5,5 0,0 z"
         style="fill-rule:evenodd;stroke:#000000;stroke-width:1pt"
         transform="matrix(0.4,0,0,0.4,4,0)" /></marker><marker
       inkscape:stockid="Arrow1Mend"
       orient="auto"
       refY="0"
       refX="0"
       id="Arrow1Mend-1"
       style="overflow:visible"><path
         inkscape:connector-curvature="0"
         id="path4064-9"
         d="M 0,0 5,-5 -12.5,0 5,5 0,0 z"
         style="fill-rule:evenodd;stroke:#000000;stroke-width:1pt"
         transform="matrix(-0.4,0,0,-0.4,-4,0)" /></marker><marker
       inkscape:stockid="Arrow1Mstart"
       orient="auto"
       refY="0"
       refX="0"
       id="Arrow1Mstart-26"
       style="overflow:visible"><path
         inkscape:connector-curvature="0"
         id="path4061-20"
         d="M 0,0 5,-5 -12.5,0 5,5 0,0 z"
         style="fill-rule:evenodd;stroke:#000000;stroke-width:1pt"
         transform="matrix(0.4,0,0,0.4,4,0)" /></marker></defs><sodipodi:namedview
     pagecolor="#ffffff"
     bordercolor="#666666"
     borderopacity="1"
     objecttolerance="10"
     gridtolerance="10"
     guidetolerance="10"
     inkscape:pageopacity="0"
     inkscape:pageshadow="2"
     inkscape:window-width="1870"
     inkscape:window-height="896"
     id="namedview4"
     showgrid="true"
     inkscape:zoom="1.2339869"
     inkscape:cx="189.4359"
     inkscape:cy="460.75735"
     inkscape:window-x="0"
     inkscape:window-y="27"
     inkscape:window-maximized="0"
     inkscape:current-layer="g10"><inkscape:grid
       type="xygrid"
       id="grid3071"
       empspacing="5"
       visible="true"
       enabled="true"
       snapvisiblegridlinesonly="true" /></sodipodi:namedview><g
     id="g10"
     inkscape:groupmode="layer"
     inkscape:label="fish"
     transform="matrix(1.25,0,0,-1.25,0,765)">




















<path
   style="fill:none;stroke:#000000;stroke-width:2;stroke-linecap:butt;stroke-linejoin:miter;stroke-miterlimit:4;stroke-opacity:1;stroke-dasharray:none;marker-end:url(#Arrow1Lend)"
   d="m 97.437963,166.33701 476.021947,0"
   id="path3085"
   inkscape:connector-curvature="0"
   sodipodi:nodetypes="cc" /><path
   style="fill:none;stroke:#000000;stroke-width:2;stroke-linecap:butt;stroke-linejoin:miter;stroke-miterlimit:4;stroke-opacity:1;stroke-dasharray:none;marker-end:url(#Arrow1Lend)"
   d="m 112.39473,139.74859 0,308.12866"
   id="path3085-3"
   inkscape:connector-curvature="0"
   sodipodi:nodetypes="cc" />


<text
   xml:space="preserve"
   style="font-size:25.60000038px;font-style:normal;font-variant:normal;font-weight:normal;font-stretch:normal;text-align:start;line-height:125%;letter-spacing:0px;word-spacing:0px;writing-mode:lr-tb;text-anchor:start;fill:#000000;fill-opacity:1;stroke:none;font-family:FreeSerif;-inkscape-font-specification:FreeSerif"
   x="571.33856"
   y="-172.78549"
   id="text4121-2-3"
   sodipodi:linespacing="125%"
   transform="scale(1,-1)"><tspan
     sodipodi:role="line"
     id="tspan4123-3-8"
     x="571.33856"
     y="-172.78549">x</tspan></text>





<text
   xml:space="preserve"
   style="font-size:25.60000038px;font-style:normal;font-variant:normal;font-weight:normal;font-stretch:normal;text-align:start;line-height:125%;letter-spacing:0px;word-spacing:0px;writing-mode:lr-tb;text-anchor:start;fill:#000000;fill-opacity:1;stroke:none;font-family:FreeSerif;-inkscape-font-specification:FreeSerif"
   x="120.1929"
   y="-451.78604"
   id="text4121-2-3-2"
   sodipodi:linespacing="125%"
   transform="scale(1,-1)"><tspan
     sodipodi:role="line"
     id="tspan4123-3-8-2"
     x="120.1929"
     y="-451.78604">y</tspan></text>








<path
   sodipodi:type="arc"
   style="fill:none;stroke:#000000;stroke-width:1.25;stroke-linejoin:round;stroke-miterlimit:4;stroke-opacity:1;stroke-dasharray:none;marker-start:url(#Arrow1Mstart);marker-end:none"
   id="path5485-0"
   sodipodi:cx="422.32028"
   sodipodi:cy="368.46591"
   sodipodi:rx="91.11116"
   sodipodi:ry="90.538132"
   d="m 501.69772,324.02065 c 7.69233,13.56592 11.73372,28.874 11.73372,44.44526"
   transform="matrix(0.8,0,0,-0.8,-124.14273,524.56639)"
   sodipodi:start="5.7700616"
   sodipodi:end="6.2831853"
   sodipodi:open="true" /><text
   xml:space="preserve"
   style="font-size:25.60000038px;font-style:normal;font-variant:normal;font-weight:normal;font-stretch:normal;text-align:start;line-height:125%;letter-spacing:0px;word-spacing:0px;writing-mode:lr-tb;text-anchor:start;fill:#000000;fill-opacity:1;stroke:none;font-family:FreeSerif;-inkscape-font-specification:FreeSerif"
   x="292.16672"
   y="-253.29785"
   id="text4121-8"
   sodipodi:linespacing="125%"
   transform="scale(1,-1)"><tspan
     sodipodi:role="line"
     id="tspan4123-7"
     x="292.16672"
     y="-253.29785">ψ</tspan></text>




<path
   style="fill:none;stroke:#000000;stroke-width:0.80000001px;stroke-linecap:butt;stroke-linejoin:miter;stroke-opacity:1;marker-mid:none;marker-end:url(#Arrow2Mend)"
   d="m 266.99177,258.86405 30.70862,32.46366"
   id="path4125-9"
   inkscape:connector-curvature="0"
   sodipodi:nodetypes="cc" /><path
   style="fill:none;stroke:#000000;stroke-width:0.80000001px;stroke-linecap:butt;stroke-linejoin:miter;stroke-opacity:1"
   d="m 269.94008,229.52512 33.00631,0"
   id="path5335-9"
   inkscape:connector-curvature="0" /><text
   xml:space="preserve"
   style="font-size:25.60000038px;font-style:normal;font-variant:normal;font-weight:normal;font-stretch:normal;text-align:start;line-height:125%;letter-spacing:0px;word-spacing:0px;writing-mode:lr-tb;text-anchor:start;fill:#000000;fill-opacity:1;stroke:none;font-family:FreeSerif;-inkscape-font-specification:FreeSerif"
   x="285.47247"
   y="-294.94928"
   id="text4121-2-4"
   sodipodi:linespacing="125%"
   transform="scale(1,-1)"><tspan
     sodipodi:role="line"
     id="tspan4123-3-4"
     x="285.47247"
     y="-294.94928">u</tspan></text>




<text
   xml:space="preserve"
   style="font-size:25.60000038px;font-style:normal;font-variant:normal;font-weight:normal;font-stretch:normal;text-align:start;line-height:125%;letter-spacing:0px;word-spacing:0px;writing-mode:lr-tb;text-anchor:start;fill:#000000;fill-opacity:1;stroke:none;font-family:FreeSerif;-inkscape-font-specification:FreeSerif"
   x="196.36374"
   y="-204.36929"
   id="text4121-2-3-2-5-3"
   sodipodi:linespacing="125%"
   transform="scale(1,-1)"><tspan
     sodipodi:role="line"
     id="tspan4123-3-8-2-0-8"
     x="196.36374"
     y="-204.36929"
     style="font-size:16px"
     dy="0">F<tspan
   style="font-size:11.19999981px"
   id="tspan7752-89" /></tspan></text>




<path
   sodipodi:type="star"
   style="fill:#000000;fill-opacity:0.31372549;stroke:#000000;stroke-width:1.25;stroke-linejoin:round;stroke-miterlimit:4;stroke-opacity:1;stroke-dasharray:none"
   id="path5619-5"
   sodipodi:sides="3"
   sodipodi:cx="384.12076"
   sodipodi:cy="157.21397"
   sodipodi:r1="38.096542"
   sodipodi:r2="19.048271"
   sodipodi:arg1="2.6303619"
   sodipodi:arg2="3.6775595"
   inkscape:flatsided="false"
   inkscape:rounded="0"
   inkscape:randomized="0"
   d="m 350.89512,175.85275 16.84841,-28.36621 16.84839,-28.36619 16.14166,28.77424 16.14164,28.77424 -32.99005,-0.40804 z"
   transform="matrix(0.45104641,-0.44488134,-0.74744688,-0.75780485,182.99876,520.71588)"
   inkscape:transform-center-x="0.11615902"
   inkscape:transform-center-y="-0.32846396" /><text
   xml:space="preserve"
   style="font-size:25.60000038px;font-style:normal;font-variant:normal;font-weight:normal;font-stretch:normal;text-align:start;line-height:125%;letter-spacing:0px;word-spacing:0px;writing-mode:lr-tb;text-anchor:start;fill:#000000;fill-opacity:1;stroke:none;font-family:FreeSerif;-inkscape-font-specification:FreeSerif"
   x="129.24937"
   y="-422.98898"
   id="text4121-2-4-9"
   sodipodi:linespacing="125%"
   transform="scale(1,-1)"><tspan
     sodipodi:role="line"
     id="tspan4123-3-4-9"
     x="129.24937"
     y="-422.98898"
     dy="0 0 8.8599997 -8.8599997 0 9 -9">(x<tspan
   style="font-size:19.20000076px"
   id="tspan3175">1</tspan>,y<tspan
   style="font-size:19.20000076px"
   id="tspan3177">1</tspan>)</tspan></text>







<path
   style="fill:none;stroke:#0000ff;stroke-width:2.16000009;stroke-linecap:butt;stroke-linejoin:miter;stroke-miterlimit:4;stroke-opacity:1;stroke-dasharray:none"
   d="m 157.8,403.89408 379.25849,0"
   id="path3075"
   inkscape:connector-curvature="0" /><path
   sodipodi:type="arc"
   style="fill:#ff0000;fill-rule:evenodd;stroke:#000000;stroke-width:1px;stroke-linecap:butt;stroke-linejoin:miter;stroke-opacity:1"
   id="path3152-8"
   sodipodi:cx="583.87976"
   sodipodi:cy="245.14035"
   sodipodi:rx="9.3193855"
   sodipodi:ry="9.3193855"
   d="m 593.19915,245.14035 c 0,5.14695 -4.17243,9.31939 -9.31939,9.31939 -5.14695,0 -9.31938,-4.17244 -9.31938,-9.31939 0,-5.14695 4.17243,-9.31939 9.31938,-9.31939 5.14696,0 9.31939,4.17244 9.31939,9.31939 z"
   transform="matrix(0.43687361,0,0,-0.43687361,284.30818,510.98942)" /><path
   sodipodi:type="arc"
   style="fill:#ff0000;fill-rule:evenodd;stroke:#000000;stroke-width:1px;stroke-linecap:butt;stroke-linejoin:miter;stroke-opacity:1"
   id="path3152"
   sodipodi:cx="583.87976"
   sodipodi:cy="245.14035"
   sodipodi:rx="9.3193855"
   sodipodi:ry="9.3193855"
   d="m 593.19915,245.14035 c 0,5.14695 -4.17243,9.31939 -9.31939,9.31939 -5.14695,0 -9.31938,-4.17244 -9.31938,-9.31939 0,-5.14695 4.17243,-9.31939 9.31938,-9.31939 5.14696,0 9.31939,4.17244 9.31939,9.31939 z"
   transform="matrix(0.43687361,0,0,-0.43687361,-100.5232,511.03096)" /><text
   xml:space="preserve"
   style="font-size:25.60000038px;font-style:normal;font-variant:normal;font-weight:normal;font-stretch:normal;text-align:start;line-height:125%;letter-spacing:0px;word-spacing:0px;writing-mode:lr-tb;text-anchor:start;fill:#000000;fill-opacity:1;stroke:none;font-family:FreeSerif;-inkscape-font-specification:FreeSerif"
   x="505.90076"
   y="-422.98898"
   id="text4121-2-4-9-7"
   sodipodi:linespacing="125%"
   transform="scale(1,-1)"><tspan
     sodipodi:role="line"
     id="tspan4123-3-4-9-2"
     x="505.90076"
     y="-422.98898"
     dy="0 0 9 -9 0 9 -9">(x<tspan
   style="font-size:22.39999962px"
   id="tspan4022">2</tspan>,y<tspan
   style="font-size:22.39999962px"
   id="tspan4024">2</tspan>)</tspan></text>



<path
   sodipodi:type="arc"
   style="fill:#ff0000;fill-rule:evenodd;stroke:#000000;stroke-width:1px;stroke-linecap:butt;stroke-linejoin:miter;stroke-opacity:1"
   id="path3152-2"
   sodipodi:cx="583.87976"
   sodipodi:cy="245.14035"
   sodipodi:rx="9.3193855"
   sodipodi:ry="9.3193855"
   d="m 593.19915,245.14035 c 0,5.14695 -4.17243,9.31939 -9.31939,9.31939 -5.14695,0 -9.31938,-4.17244 -9.31938,-9.31939 0,-5.14695 4.17243,-9.31939 9.31938,-9.31939 5.14696,0 9.31939,4.17244 9.31939,9.31939 z"
   transform="matrix(0.43687361,0,0,-0.43687361,-16.451861,337.4571)" /><path
   style="fill:none;stroke:#000000;stroke-width:1px;stroke-linecap:butt;stroke-linejoin:miter;stroke-opacity:1"
   d="m 298.22035,472.45232 0,-211.50953"
   id="path3122"
   inkscape:connector-curvature="0"
   transform="matrix(0.8,0,0,-0.8,0,612)" /><path
   style="fill:none;stroke:#000000;stroke-width:1px;stroke-linecap:butt;stroke-linejoin:miter;stroke-opacity:1"
   d="m 298.22035,274.71927 18.23358,0 0,-14.18168"
   id="path3124"
   inkscape:connector-curvature="0"
   transform="matrix(0.8,0,0,-0.8,0,612)" /><path
   sodipodi:type="arc"
   style="fill:#ffff00;fill-rule:evenodd;stroke:#000000;stroke-width:1px;stroke-linecap:butt;stroke-linejoin:miter;stroke-opacity:1;fill-opacity:1"
   id="path3152-25"
   sodipodi:cx="583.87976"
   sodipodi:cy="245.14035"
   sodipodi:rx="9.3193855"
   sodipodi:ry="9.3193855"
   d="m 593.19915,245.14035 c 0,5.14695 -4.17243,9.31939 -9.31939,9.31939 -5.14695,0 -9.31938,-4.17244 -9.31938,-9.31939 0,-5.14695 4.17243,-9.31939 9.31938,-9.31939 5.14696,0 9.31939,4.17244 9.31939,9.31939 z"
   transform="matrix(0.43687361,0,0,-0.43687361,-16.505382,510.98942)" /><text
   xml:space="preserve"
   style="font-size:25.60000038px;font-style:normal;font-variant:normal;font-weight:normal;font-stretch:normal;text-align:start;line-height:125%;letter-spacing:0px;word-spacing:0px;writing-mode:lr-tb;text-anchor:start;fill:#000000;fill-opacity:1;stroke:none;font-family:FreeSerif;-inkscape-font-specification:FreeSerif"
   x="206.70795"
   y="-422.43198"
   id="text4121-2-4-9-4"
   sodipodi:linespacing="125%"
   transform="scale(1,-1)"><tspan
     sodipodi:role="line"
     id="tspan4123-3-4-9-9"
     x="206.70795"
     y="-422.43198"
     dy="0 0 9 -9 0 9 -9">(x<tspan
   style="font-size:22.4px"
   id="tspan4097">i</tspan>,y<tspan
   style="font-size:22.4px"
   id="tspan4095">i</tspan>)</tspan></text>

<text
   xml:space="preserve"
   style="font-size:40px;font-style:normal;font-weight:normal;line-height:125%;letter-spacing:0px;word-spacing:0px;fill:#000000;fill-opacity:1;stroke:none;font-family:Sans"
   x="249.19228"
   y="232.57944"
   id="text4099"
   sodipodi:linespacing="125%"
   transform="matrix(0.8,0,0,-0.8,0,612)"><tspan
     sodipodi:role="line"
     id="tspan4101"
     x="249.19228"
     y="232.57944" /></text>

<path
   sodipodi:type="arc"
   style="fill:#00ff00;fill-opacity:1;fill-rule:evenodd;stroke:#000000;stroke-width:1px;stroke-linecap:butt;stroke-linejoin:miter;stroke-opacity:1"
   id="path3152-25-8"
   sodipodi:cx="583.87976"
   sodipodi:cy="245.14035"
   sodipodi:rx="9.3193855"
   sodipodi:ry="9.3193855"
   d="m 593.19915,245.14035 a 9.3193855,9.3193855 0 1 1 -18.63877,0 9.3193855,9.3193855 0 1 1 18.63877,0 z"
   transform="matrix(0.43687361,0,0,-0.43687361,64.846948,511.09535)" /><path
   style="fill:none;stroke:#000000;stroke-width:1px;stroke-linecap:butt;stroke-linejoin:miter;stroke-opacity:1;marker-start:url(#Arrow1Mstart-26);marker-end:url(#Arrow1Mend-1)"
   d="m 290,205 110,0"
   id="path3997"
   inkscape:connector-curvature="0"
   transform="matrix(0.8,0,0,-0.8,0,612)" /><path
   style="fill:none;stroke:#000000;stroke-width:1px;stroke-linecap:butt;stroke-linejoin:miter;stroke-opacity:1"
   d="m 290,195 0,20"
   id="path4451"
   inkscape:connector-curvature="0"
   transform="matrix(0.8,0,0,-0.8,0,612)" /><path
   style="fill:none;stroke:#000000;stroke-width:1px;stroke-linecap:butt;stroke-linejoin:miter;stroke-opacity:1"
   d="m 400,195 0,20"
   id="path4453"
   inkscape:connector-curvature="0"
   transform="matrix(0.8,0,0,-0.8,0,612)" /><text
   xml:space="preserve"
   style="font-size:25.60000038px;font-style:normal;font-variant:normal;font-weight:normal;font-stretch:normal;text-align:start;line-height:125%;letter-spacing:0px;word-spacing:0px;writing-mode:lr-tb;text-anchor:start;fill:#000000;fill-opacity:1;stroke:none;font-family:FreeSerif;-inkscape-font-specification:FreeSerif"
   x="248"
   y="-460.80002"
   id="text4121-2-4-9-4-6"
   sodipodi:linespacing="125%"
   transform="scale(1,-1)"
   inkscape:export-filename="/home/bsb/bbing/Classes/me402/me402book/trunk/figs/uni_model_line_geo.png"
   inkscape:export-xdpi="150"
   inkscape:export-ydpi="150"><tspan
     sodipodi:role="line"
     id="tspan4123-3-4-9-9-1"
     x="248"
     y="-460.80002"
     dy="0 9">d<tspan
   style="font-size:19.20000076px"
   id="tspan4482">LOS</tspan></tspan></text>
<text
   xml:space="preserve"
   style="font-size:25.60000038px;font-style:normal;font-variant:normal;font-weight:normal;font-stretch:normal;text-align:start;line-height:125%;letter-spacing:0px;word-spacing:0px;writing-mode:lr-tb;text-anchor:start;fill:#000000;fill-opacity:1;stroke:none;font-family:FreeSerif;-inkscape-font-specification:FreeSerif"
   x="302.70795"
   y="-422.43198"
   id="text4121-2-4-9-4-5"
   sodipodi:linespacing="125%"
   transform="scale(1,-1)"><tspan
     sodipodi:role="line"
     id="tspan4123-3-4-9-9-7"
     x="302.70795"
     y="-422.43198"
     dy="0 0 9 -9 0 9 -9">(x<tspan
   style="font-size:19.2px"
   id="tspan4511">L</tspan>,y<tspan
   style="font-size:19.2px"
   id="tspan4515">L</tspan>)</tspan></text>
</g></svg>